<?xml version="1.0" standalone="no"?>
<!DOCTYPE svg PUBLIC "-//W3C//DTD SVG 1.1//EN" "http://www.w3.org/Graphics/SVG/1.1/DTD/svg11.dtd" >
<svg xmlns="http://www.w3.org/2000/svg" xmlns:xlink="http://www.w3.org/1999/xlink" version="1.1" viewBox="-10 0 266 256">
   <path fill="currentColor"
d="M153 35q5 3 12 4q9 5 9 7q-1 3 -3 2q-7 0 -12 6q-7 9 -11 19q2 2 1 4q-4 4 -5 11v25q0 3 1 7q0 4 1 6q5 2 12 -2l1 -1q1 0 4 -2q5 0 11 -4q2 -1 4 0q1 3 -2 4q-10 5 -17 10q-4 4 -2 0q2 -2 -2 -2q-4 2 -9 0v3q1 10 6 22q4 -1 12 -5q8 -3 12 -5v-1q1 -4 3 -5h12h4
q-1 -12 -1 -22q-1 -15 -1 -23q0 -4 -2 -12v-7q0 -9 -10 -9q-7 1 -16 5l-4 2h-3q-2 0 0 -2q16 -10 30 -9q10 0 20 13q1 3 0 4q-2 2 -3 1q-6 3 -6 14v54q0 9 3 15q0 2 1 5q1 4 4 9q0 4 -1 4q-3 3 -6 -1q-10 -13 -22 -20q-3 -1 0 -2q5 2 13 1q4 0 4 -5v-11q-2 1 -4 1
q-18 2 -24 18q-20 37 -56 52q-2 0 0 -2q41 -27 54 -57q-11 3 -23 9q-22 9 -20 -1q0 -2 2 -1q-1 6 11 1q2 -1 6 -2q3 -2 8 -5q-4 2 -12 -15q-1 0 -1 -1q-2 -2 2 -6q5 -5 3 -9q-2 -8 -3 -37q0 -3 -3 -15h-1q-3 -3 7 -3l10 -18q4 -7 1 -15q-1 -2 1 -1zM69 95l7 -5l1 -1
q2 -3 5 -16q1 -9 0 -20q-2 -3 0 -6q-1 -2 1 -1q2 3 5 5q2 1 1 5q0 2 -1 7v3q-2 14 -6 20q2 -1 8 -3q6 -3 11 -6q4 -5 9 -3q0 1 2 2q3 2 6 3q1 1 8 6q0 3 -3 6q-9 2 -12 6q-2 3 -4 5q-12 15 -19 22q1 0 3 -1q8 -3 10 -7q1 -1 3 -1q6 2 6 4q1 4 -5 5l-8 4q-5 2 -9 4l-2 1
q1 1 1 5q-1 3 -1 16l1 3q0 20 -1 23q10 -1 20 -3q3 -7 6 -6q1 1 6 3t7 2q2 2 4 3q3 4 2 6q-1 3 -5 0q-17 -11 -70 9q-4 1 -6 6q-1 4 -3 3q-8 -3 -10 -9q-2 -4 2 -6q5 -1 6 -4q0 -30 -1 -57v-43q0 -37 -3 -45q-2 -2 -2 -3q1 -2 3 -1q10 8 8 18q-1 35 -1 67q-1 24 -1 37v28
q-1 5 1 6l5 -1q13 -4 27 -8q-1 -3 0 -14q0 -3 1 -5q-1 -19 -3 -27v-2q-3 1 -3 -4q0 -1 2 -2q1 0 2 -1q12 -11 25 -38q1 -3 0 -4t-4 -1q-15 10 -32 15q-2 1 -2 0q0 -2 2 -4zM201 5q4 1 10 4h3q4 2 2 5q-1 2 -11 0q-17 2 -43 14q-7 3 -1 -1q7 -6 14 -9q1 -1 -1 -1q-4 1 -13 3
q-4 1 -9 2q-8 5 -18 -1q-3 -1 1 -2q10 2 42 -8q1 0 4 -1q6 -1 9 -3q0 -1 4 -2q5 -1 7 0zM179 179q37 21 53 42q1 2 -1 3v1q-3 3 -3 2q-10 -5 -17 -13q-16 -19 -33 -33q-4 -2 1 -2zM88 27q1 -4 25 -1q3 0 3 3q-1 3 -3 2q-12 1 -24 7q-6 3 -7 2q-2 0 2 -3q4 -4 -19 4
q-7 4 -12 2q-2 -1 0 -2q3 -1 5 -2q15 -7 30 -12zM55 92l3 9q0 1 1 1q4 18 9 25q5 11 1 10q-3 3 -4 -1q-2 -1 -4 -4q-3 -3 -4 -5q-5 -4 -4 -7q0 -2 1 -3l1 -1q0 -8 -1 -20q0 1 0 -3q-1 -2 1 -1zM179 94q0 3 -1 2q-11 3 -13 6l-1 1q-1 2 -2 1q-3 3 -1 -1q1 -1 -4 0h-3
q-2 -1 0 -1q1 0 2 -1t3 -2q12 -6 19 -6q1 0 1 1z" />
</svg>
